<?xml version="1.0" encoding="UTF-8" standalone="no"?>
<!DOCTYPE svg PUBLIC "-//W3C//DTD SVG 1.1//EN" "http://www.w3.org/Graphics/SVG/1.1/DTD/svg11.dtd">
<svg width="100%" height="100%" viewBox="0 0 16 16" version="1.1" xmlns="http://www.w3.org/2000/svg" xmlns:xlink="http://www.w3.org/1999/xlink" xml:space="preserve" xmlns:serif="http://www.serif.com/" style="fill-rule:evenodd;clip-rule:evenodd;stroke-linejoin:round;stroke-miterlimit:2;">
    <g transform="matrix(1,0,0,1,-952.618,-1940)">
        <g id="logo.v5-16x16-white" serif:id="logo.v5 16x16 white" transform="matrix(1,0,0,1,1401.62,-455)">
            <rect x="-449" y="2395" width="16" height="16" style="fill:none;"/>
            <clipPath id="_clip1">
                <rect x="-449" y="2395" width="16" height="16"/>
            </clipPath>
            <g clip-path="url(#_clip1)">
                <g transform="matrix(1,0,0,1,-1383,455)">
                    <path d="M935.231,1948.62L934,1948.62L934,1947.38L935.231,1947.38L935.231,1946.15L936.462,1946.15L936.462,1944.92L937.692,1944.92L937.692,1943.69L940.154,1943.69L940.154,1944.92L938.923,1944.92L938.923,1946.15L937.692,1946.15L937.692,1949.85L938.923,1949.85L938.923,1951.08L940.154,1951.08L940.154,1952.31L937.692,1952.31L937.692,1951.08L936.462,1951.08L936.462,1949.85L935.231,1949.85L935.231,1948.62ZM940.154,1943.69L940.154,1942.46L943.846,1942.46L943.846,1943.69L940.154,1943.69ZM943.846,1943.69L946.308,1943.69L946.308,1944.92L947.538,1944.92L947.538,1946.15L948.769,1946.15L948.769,1947.38L950,1947.38L950,1948.62L948.769,1948.62L948.769,1949.85L947.538,1949.85L947.538,1951.08L946.308,1951.08L946.308,1952.31L943.846,1952.31L943.846,1951.08L945.077,1951.08L945.077,1949.85L946.308,1949.85L946.308,1946.15L945.077,1946.15L945.077,1944.92L943.846,1944.92L943.846,1943.69ZM943.846,1952.31L943.846,1953.54L940.154,1953.54L940.154,1952.31L943.846,1952.31ZM940.154,1944.92L942.615,1944.92L942.615,1946.15L943.846,1946.15L943.846,1947.38L945.077,1947.38L945.077,1948.62L943.846,1948.62L943.846,1949.85L942.615,1949.85L942.615,1951.08L940.154,1951.08L940.154,1944.92Z" style="fill:white;"/>
                </g>
            </g>
        </g>
    </g>
</svg>
