<?xml version="1.0" encoding="UTF-8" standalone="no"?>
<!DOCTYPE svg PUBLIC "-//W3C//DTD SVG 1.1//EN" "http://www.w3.org/Graphics/SVG/1.1/DTD/svg11.dtd">
<svg width="100%" height="100%" viewBox="0 0 700 551" version="1.1" xmlns="http://www.w3.org/2000/svg" xmlns:xlink="http://www.w3.org/1999/xlink" xml:space="preserve" xmlns:serif="http://www.serif.com/" style="fill-rule:evenodd;clip-rule:evenodd;stroke-linejoin:round;stroke-miterlimit:2;">
    <g transform="matrix(1,0,0,1,-43,-2589.72)">
        <g id="logo.v3-white" serif:id="logo.v3 white" transform="matrix(1,0,0,1,-0.308308,1816.48)">
            <rect x="43.308" y="773.24" width="699.423" height="550.028" style="fill:none;"/>
            <g transform="matrix(1.3707,0,0,1.3707,-145.691,-388.584)">
                <g transform="matrix(1,0,0,1,0.308308,-1207.61)">
                    <path d="M392.712,2098.7C521.256,2098.7 623.13,2245.61 627.373,2251.97C629.058,2254.37 629.058,2257.58 627.373,2259.98C623.13,2266.13 521.256,2413.03 392.712,2413.03C478.928,2413.03 549.874,2342.08 549.874,2255.87L549.874,2255.81C549.702,2169.67 478.853,2098.84 392.712,2098.7Z" style="fill:white;stroke:white;stroke-width:1px;"/>
                </g>
                <g transform="matrix(1,0,0,1,0.308308,-1207.61)">
                    <path d="M392.712,2413.03C264.167,2413.03 162.293,2266.13 158.05,2259.98C156.365,2257.58 156.365,2254.37 158.05,2251.97C162.293,2245.61 264.167,2098.7 392.712,2098.7C306.495,2098.7 235.549,2169.65 235.549,2255.87C235.549,2342.08 306.495,2413.03 392.712,2413.03Z" style="fill:white;stroke:white;stroke-width:1px;"/>
                </g>
                <g transform="matrix(1,0,0,1,0.308308,-1207.61)">
                    <path d="M627.373,2259.98C623.13,2266.13 521.256,2413.03 392.712,2413.03C264.167,2413.03 162.293,2266.13 158.05,2259.98C156.365,2257.58 156.365,2254.37 158.05,2251.97C162.293,2245.61 264.167,2098.7 392.712,2098.7C521.256,2098.7 623.13,2245.61 627.373,2251.97C629.058,2254.37 629.058,2257.58 627.373,2259.98L627.373,2259.98ZM549.874,2255.81C549.874,2255.83 549.874,2255.85 549.874,2255.87C549.874,2342.08 478.928,2413.03 392.712,2413.03C306.495,2413.03 235.549,2342.08 235.549,2255.87C235.549,2169.65 306.495,2098.7 392.711,2098.7C478.853,2098.84 549.702,2169.67 549.874,2255.81L549.874,2255.81Z" style="fill:none;fill-rule:nonzero;stroke:white;stroke-width:36.86px;"/>
                </g>
                <g transform="matrix(2.36398,0,0,2.03753,-528.385,-3568.62)">
                    <path d="M437.588,2261.38C439.104,2262.4 440.001,2264.13 439.964,2265.95C439.93,2267.78 439.051,2269.48 437.588,2270.57L372.056,2319.57C371.05,2320.38 369.783,2320.8 368.491,2320.76C367.58,2320.77 366.683,2320.53 365.905,2320.06C363.953,2319.11 362.703,2317.13 362.689,2314.95L362.689,2216.82C362.769,2213.64 365.405,2211.07 368.582,2211.07C369.831,2211.07 371.047,2211.47 372.056,2212.2L437.588,2261.38Z" style="fill:white;fill-rule:nonzero;"/>
                </g>
            </g>
        </g>
    </g>
</svg>
